<svg xmlns="http://www.w3.org/2000/svg" xmlns:xlink="http://www.w3.org/1999/xlink" width="512" zoomAndPan="magnify" viewBox="0 0 384 383.999986" height="512" preserveAspectRatio="xMidYMid meet" version="1.0"><rect x="-38.4" width="460.8" fill="#ffffff" y="-38.399999" height="460.799983" fill-opacity="1"/><rect x="-38.4" width="460.8" fill="#ffffff" y="-38.399999" height="460.799983" fill-opacity="1"/><path fill="#91c4c3" d="M 307.726562 173.25 L 316.199219 164.773438 L 290.773438 139.351562 L 244.199219 92.773438 L 218.773438 67.351562 L 43.949219 242.175781 C 36.148438 249.976562 30.449219 259.648438 27.300781 270.226562 L 0.75 360.523438 C -1.125 366.824219 0.601562 373.648438 5.324219 378.300781 C 10.050781 382.949219 16.800781 384.675781 23.101562 382.875 L 113.324219 356.324219 C 123.898438 353.175781 133.574219 347.476562 141.375 339.675781 L 290.773438 190.273438 Z M 120 299.550781 L 113.175781 316.574219 C 110.175781 318.898438 106.800781 320.625 103.199219 321.75 L 44.550781 339 L 61.800781 280.425781 C 62.851562 276.75 64.648438 273.375 66.976562 270.449219 L 84 263.625 L 84 287.625 C 84 294.226562 89.398438 299.625 96 299.625 L 120 299.625 Z M 272.023438 14.023438 L 261.226562 24.898438 L 244.273438 41.851562 L 235.726562 50.324219 L 261.148438 75.75 L 307.726562 122.324219 L 333.148438 147.75 L 369.449219 111.449219 C 388.199219 92.699219 388.199219 62.324219 369.449219 43.574219 L 339.976562 14.023438 C 321.226562 -4.726562 290.851562 -4.726562 272.101562 14.023438 Z M 236.476562 140.023438 L 128.476562 248.023438 C 123.824219 252.675781 116.175781 252.675781 111.523438 248.023438 C 106.875 243.375 106.875 235.726562 111.523438 231.074219 L 219.523438 123.074219 C 224.175781 118.425781 231.824219 118.425781 236.476562 123.074219 C 241.125 127.726562 241.125 135.375 236.476562 140.023438 Z M 236.476562 140.023438 " fill-opacity="1" fill-rule="nonzero"/></svg>